<svg width="452" height="206" xmlns="http://www.w3.org/2000/svg" xmlns:xlink="http://www.w3.org/1999/xlink" overflow="hidden"><defs><clipPath id="clip0"><rect x="465" y="239" width="452" height="206"/></clipPath></defs><g clip-path="url(#clip0)" transform="translate(-465 -239)"><path d="M915.824 413.507C915.824 413.507 466.743 421.346 466.743 421.346 466.718 421.718 466.705 422.092 466.712 422.472 466.838 429.719 472.79 433.992 480.038 433.866 480.038 433.866 501.269 433.495 501.269 433.495 501.269 433.495 503.303 439.461 503.303 439.461 504.012 441.933 506.602 443.904 509.087 443.86 509.087 443.86 513.331 443.786 513.331 443.786 513.331 443.786 516.586 443.73 516.586 443.73 516.586 443.73 521.007 443.652 521.007 443.652 523.519 443.608 526.068 441.548 526.698 439.052 526.698 439.052 528.545 433.019 528.545 433.019 528.545 433.019 855.216 427.317 855.216 427.317 855.216 427.317 857.25 433.282 857.25 433.282 857.96 435.754 860.549 437.726 863.034 437.682 863.034 437.682 867.279 437.608 867.279 437.608 867.279 437.608 870.533 437.551 870.533 437.551 870.533 437.551 874.952 437.474 874.952 437.474 877.467 437.43 880.015 435.369 880.645 432.874 880.645 432.874 882.492 426.841 882.492 426.841 882.492 426.841 902.974 426.483 902.974 426.483 910.222 426.357 916.021 421.879 915.894 414.631 915.888 414.252 915.862 413.878 915.824 413.507ZM916.561 412.744C916.561 412.744 465.98 420.609 465.98 420.609 465.955 420.981 465.942 421.355 465.949 421.735 466.075 428.982 472.053 434.755 479.301 434.629 479.301 434.629 500.707 434.255 500.707 434.255 500.707 434.255 502.432 440.226 502.432 440.226 503.148 442.699 505.757 444.669 508.262 444.625 508.262 444.625 513.297 444.537 513.297 444.537 513.297 444.537 516.577 444.48 516.577 444.48 516.577 444.48 521.787 444.389 521.787 444.389 524.323 444.345 526.892 442.284 527.527 439.788 527.527 439.788 529.062 433.76 529.062 433.76 529.062 433.76 854.654 428.077 854.654 428.077 854.654 428.077 856.379 434.048 856.379 434.048 857.095 436.52 859.703 438.49 862.209 438.447 862.209 438.447 867.244 438.359 867.244 438.359 867.244 438.359 870.524 438.302 870.524 438.302 870.524 438.302 875.734 438.211 875.734 438.211 878.27 438.166 880.84 436.106 881.474 433.61 881.474 433.61 883.009 427.582 883.009 427.582 883.009 427.582 903.737 427.22 903.737 427.22 910.985 427.094 916.758 421.116 916.631 413.868 916.625 413.489 916.599 413.115 916.561 412.744ZM524.596 439.054C524.295 440.234 522.905 441.369 521.735 441.389 521.735 441.389 516.524 441.48 516.524 441.48 516.524 441.48 513.245 441.537 513.245 441.537 513.245 441.537 508.209 441.625 508.209 441.625 507.071 441.645 505.676 440.562 505.34 439.399 505.34 439.399 503.838 434.201 503.838 434.201 503.838 434.201 525.929 433.815 525.929 433.815 525.929 433.815 524.596 439.054 524.596 439.054ZM878.542 432.876C878.241 434.055 876.852 435.191 875.682 435.211 875.682 435.211 870.472 435.302 870.472 435.302 870.472 435.302 867.192 435.359 867.192 435.359 867.192 435.359 862.156 435.447 862.156 435.447 861.017 435.467 859.623 434.384 859.286 433.221 859.286 433.221 857.785 428.022 857.785 428.022 857.785 428.022 879.876 427.637 879.876 427.637 879.876 427.637 878.542 432.876 878.542 432.876ZM903.685 424.221C903.685 424.221 883.775 424.568 883.775 424.568 883.775 424.568 853.792 425.092 853.792 425.092 853.792 425.092 529.828 430.746 529.828 430.746 529.828 430.746 499.845 431.27 499.845 431.27 499.845 431.27 479.248 431.629 479.248 431.629 474.307 431.716 470.119 428.228 469.155 423.554 469.155 423.554 913.49 415.798 913.49 415.798 912.69 420.503 908.627 424.134 903.685 424.221Z" fill="#E0E2E2" fill-rule="evenodd"/><path d="M916.561 412.744C916.561 412.744 465.98 420.609 465.98 420.609 465.955 420.981 465.942 421.355 465.949 421.735 466.075 428.982 472.053 434.755 479.301 434.629 479.301 434.629 500.707 434.255 500.707 434.255 500.707 434.255 502.432 440.226 502.432 440.226 503.148 442.699 505.757 444.669 508.262 444.625 508.262 444.625 513.297 444.537 513.297 444.537 513.297 444.537 516.577 444.48 516.577 444.48 516.577 444.48 521.787 444.389 521.787 444.389 524.323 444.345 526.892 442.284 527.527 439.788 527.527 439.788 529.062 433.76 529.062 433.76 529.062 433.76 854.654 428.077 854.654 428.077 854.654 428.077 856.379 434.048 856.379 434.048 857.095 436.52 859.703 438.49 862.209 438.447 862.209 438.447 867.244 438.359 867.244 438.359 867.244 438.359 870.524 438.302 870.524 438.302 870.524 438.302 875.734 438.211 875.734 438.211 878.27 438.166 880.84 436.106 881.474 433.61 881.474 433.61 883.009 427.582 883.009 427.582 883.009 427.582 903.737 427.22 903.737 427.22 910.985 427.094 916.758 421.116 916.631 413.868 916.625 413.489 916.599 413.115 916.561 412.744ZM524.596 439.054C524.295 440.234 522.905 441.369 521.735 441.389 521.735 441.389 516.524 441.48 516.524 441.48 516.524 441.48 513.245 441.537 513.245 441.537 513.245 441.537 508.209 441.625 508.209 441.625 507.071 441.645 505.676 440.562 505.34 439.399 505.34 439.399 503.838 434.201 503.838 434.201 503.838 434.201 525.929 433.815 525.929 433.815 525.929 433.815 524.596 439.054 524.596 439.054ZM878.542 432.876C878.241 434.055 876.852 435.191 875.682 435.211 875.682 435.211 870.472 435.302 870.472 435.302 870.472 435.302 867.192 435.359 867.192 435.359 867.192 435.359 862.156 435.447 862.156 435.447 861.017 435.467 859.623 434.384 859.286 433.221 859.286 433.221 857.785 428.022 857.785 428.022 857.785 428.022 879.876 427.637 879.876 427.637 879.876 427.637 878.542 432.876 878.542 432.876ZM903.685 424.221C903.685 424.221 883.775 424.568 883.775 424.568 883.775 424.568 853.792 425.092 853.792 425.092 853.792 425.092 529.828 430.746 529.828 430.746 529.828 430.746 499.845 431.27 499.845 431.27 499.845 431.27 479.248 431.629 479.248 431.629 474.307 431.716 470.119 428.228 469.155 423.554 469.155 423.554 913.49 415.798 913.49 415.798 912.69 420.503 908.627 424.134 903.685 424.221Z" fill="#3D3F49" fill-rule="evenodd"/><path d="M723.422 410.858C706.992 411.145 700.933 401.398 698.741 394.786 698.741 394.786 671.789 395.257 671.789 395.257 669.828 401.941 664.114 411.893 647.684 412.18 647.684 412.18 644.702 413.208 644.789 418.232 644.789 418.232 726.527 416.805 726.527 416.805 726.439 411.781 723.422 410.858 723.422 410.858Z" fill="#FFFFFF" fill-rule="evenodd"/><path d="M722.869 408.602C722.724 408.604 722.594 408.613 722.479 408.624 708.707 408.803 703.108 400.699 700.838 393.855 700.425 392.609 699.251 391.777 697.939 391.8 697.939 391.8 672.487 392.244 672.487 392.244 671.174 392.267 670.029 393.14 669.66 394.399 667.631 401.319 662.318 409.613 648.548 409.915 648.433 409.907 648.302 409.903 648.157 409.906 645.499 409.952 642.43 411.974 642.526 417.521 642.555 419.178 643.922 420.497 645.578 420.468 645.578 420.468 725.816 419.068 725.816 419.068 727.473 419.039 728.792 417.672 728.764 416.016 728.666 410.47 725.528 408.555 722.869 408.602ZM645.525 417.469C645.453 413.313 647.499 412.918 648.208 412.905 648.357 412.903 648.446 412.917 648.446 412.917 664.876 412.63 670.578 401.928 672.538 395.244 672.538 395.244 697.99 394.799 697.99 394.799 700.183 401.411 706.254 411.908 722.684 411.621 722.684 411.621 722.773 411.604 722.92 411.601 723.63 411.589 725.69 411.912 725.762 416.068 725.762 416.068 645.525 417.469 645.525 417.469Z" fill="#3D3F49" fill-rule="evenodd"/><path d="M776.717 241.127C776.717 241.127 588.496 244.413 588.496 244.413 582.284 244.521 577.335 249.645 577.444 255.857 577.444 255.857 579.682 384.088 579.682 384.088 579.79 390.3 584.915 395.249 591.127 395.14 591.127 395.14 779.348 391.855 779.348 391.855 785.56 391.746 790.509 386.622 790.4 380.41 790.4 380.41 788.162 252.179 788.162 252.179 788.054 245.967 782.93 241.019 776.717 241.127Z" fill="#FFFFFF" fill-rule="evenodd"/><path d="M781.243 242.544C781.243 242.544 584.022 245.987 584.022 245.987 581.123 246.038 578.814 248.429 578.865 251.328 578.865 251.328 580.854 365.311 580.854 365.311 580.854 365.311 788.573 361.685 788.573 361.685 788.573 361.685 786.584 247.701 786.584 247.701 786.533 244.803 784.141 242.494 781.243 242.544Z" fill="#5EA554" fill-rule="evenodd"/><path d="M778.191 239.601C778.191 239.601 586.97 242.939 586.97 242.939 580.758 243.047 575.809 248.172 575.918 254.384 575.918 254.384 577.855 365.367 577.855 365.367 577.855 365.367 577.907 368.367 577.907 368.367 577.907 368.367 578.208 385.614 578.208 385.614 578.317 391.826 583.441 396.774 589.653 396.666 589.653 396.666 780.874 393.328 780.874 393.328 787.086 393.22 792.035 388.096 791.926 381.884 791.926 381.884 791.625 364.636 791.625 364.636 791.625 364.636 791.573 361.637 791.573 361.637 791.573 361.637 789.636 250.653 789.636 250.653 789.527 244.441 784.403 239.493 778.191 239.601ZM788.927 381.936C789.006 386.484 785.37 390.249 780.822 390.329 780.822 390.329 589.601 393.667 589.601 393.667 585.053 393.746 581.287 390.11 581.208 385.562 581.208 385.562 580.907 368.314 580.907 368.314 580.907 368.314 788.626 364.688 788.626 364.688 788.626 364.688 788.927 381.936 788.927 381.936ZM580.855 365.315C580.855 365.315 578.917 254.331 578.917 254.331 578.838 249.783 582.474 246.018 587.022 245.939 587.022 245.939 778.243 242.601 778.243 242.601 782.792 242.521 786.557 246.158 786.636 250.706 786.636 250.706 788.573 361.689 788.573 361.689 788.573 361.689 580.855 365.315 580.855 365.315Z" fill="#3D3F49" fill-rule="evenodd"/><path d="M684.898 374.017C687.59 373.97 689.81 376.114 689.857 378.806 689.904 381.499 687.76 383.719 685.068 383.766 682.376 383.813 680.156 381.669 680.109 378.977 680.062 376.285 682.206 374.064 684.898 374.017Z" fill="#E0E2E2" fill-rule="evenodd"/><path d="M690.88 343.848C690.88 343.848 693.898 352.902 693.898 352.902 693.898 352.902 699.934 346.866 699.934 346.866 699.934 346.866 690.88 343.848 690.88 343.848ZM698.066 349.978C698.066 349.978 700.581 347.461 700.581 347.461 700.768 347.274 700.846 347.003 700.785 346.746 700.724 346.488 700.534 346.281 700.283 346.196 700.283 346.196 691.115 343.14 691.115 343.14 690.841 343.049 690.537 343.12 690.334 343.324 690.129 343.529 690.058 343.832 690.149 344.106 690.149 344.106 693.205 353.275 693.205 353.275 693.289 353.526 693.497 353.716 693.755 353.777 693.813 353.791 693.871 353.798 693.93 353.798 694.129 353.798 694.325 353.719 694.47 353.573 694.47 353.573 696.985 351.057 696.985 351.057 696.985 351.057 701.03 355.101 701.03 355.101 701.03 355.101 702.11 354.021 702.11 354.021 702.11 354.021 698.066 349.978 698.066 349.978ZM694.263 351.62C694.263 351.62 692.08 345.073 692.08 345.073 692.08 345.073 698.626 347.255 698.626 347.255 698.626 347.255 694.263 351.62 694.263 351.62Z" fill="#FFFFFF" fill-rule="evenodd"/><path d="M698.066 349.978C698.066 349.978 700.581 347.461 700.581 347.461 700.768 347.274 700.846 347.003 700.785 346.746 700.724 346.488 700.534 346.281 700.283 346.196 700.283 346.196 691.115 343.14 691.115 343.14 690.841 343.049 690.537 343.12 690.334 343.324 690.129 343.529 690.058 343.832 690.149 344.106 690.149 344.106 693.205 353.275 693.205 353.275 693.289 353.526 693.497 353.716 693.755 353.777 693.813 353.791 693.871 353.798 693.93 353.798 694.129 353.798 694.325 353.719 694.47 353.573 694.47 353.573 696.985 351.057 696.985 351.057 696.985 351.057 701.03 355.101 701.03 355.101 701.03 355.101 702.11 354.021 702.11 354.021 702.11 354.021 698.066 349.978 698.066 349.978ZM694.263 351.62C694.263 351.62 692.08 345.073 692.08 345.073 692.08 345.073 698.626 347.255 698.626 347.255 698.626 347.255 694.263 351.62 694.263 351.62Z" fill="#3D3F49" fill-rule="evenodd"/><path d="M687.785 346.017C687.785 346.017 690.942 354.963 690.942 354.963 690.942 354.963 696.836 348.86 696.836 348.86 696.836 348.86 687.785 346.017 687.785 346.017ZM695.034 351.985C695.034 351.985 697.49 349.44 697.49 349.44 697.672 349.251 697.745 348.98 697.68 348.726 697.615 348.47 697.423 348.267 697.172 348.188 697.172 348.188 688.007 345.309 688.007 345.309 687.732 345.224 687.432 345.299 687.233 345.506 687.034 345.713 686.968 346.015 687.063 346.286 687.063 346.286 690.26 355.346 690.26 355.346 690.348 355.593 690.557 355.78 690.815 355.835 690.873 355.848 690.931 355.854 690.989 355.853 691.188 355.85 691.381 355.767 691.522 355.62 691.522 355.62 693.978 353.076 693.978 353.076 693.978 353.076 698.069 357.025 698.069 357.025 698.069 357.025 699.123 355.933 699.123 355.933 699.123 355.933 695.034 351.985 695.034 351.985ZM691.283 353.682C691.283 353.682 688.999 347.214 688.999 347.214 688.999 347.214 695.543 349.269 695.543 349.269 695.543 349.269 691.283 353.682 691.283 353.682Z" fill="#FFFFFF" fill-rule="evenodd"/><path d="M695.034 351.985C695.034 351.985 697.49 349.44 697.49 349.44 697.672 349.251 697.745 348.98 697.68 348.726 697.615 348.47 697.423 348.267 697.172 348.188 697.172 348.188 688.007 345.309 688.007 345.309 687.732 345.224 687.432 345.299 687.233 345.506 687.034 345.713 686.968 346.015 687.063 346.286 687.063 346.286 690.26 355.346 690.26 355.346 690.348 355.593 690.557 355.78 690.815 355.835 690.873 355.848 690.931 355.854 690.989 355.853 691.188 355.85 691.381 355.767 691.522 355.62 691.522 355.62 693.978 353.076 693.978 353.076 693.978 353.076 698.069 357.025 698.069 357.025 698.069 357.025 699.123 355.933 699.123 355.933 699.123 355.933 695.034 351.985 695.034 351.985ZM691.283 353.682C691.283 353.682 688.999 347.214 688.999 347.214 688.999 347.214 695.543 349.269 695.543 349.269 695.543 349.269 691.283 353.682 691.283 353.682Z" fill="#3D3F49" fill-rule="evenodd"/><path d="M781.243 242.544C781.243 242.544 584.022 245.987 584.022 245.987 581.123 246.038 578.814 248.429 578.865 251.328 578.865 251.328 580.854 365.311 580.854 365.311 580.854 365.311 788.573 361.685 788.573 361.685 788.573 361.685 786.584 247.701 786.584 247.701 786.533 244.803 784.141 242.494 781.243 242.544Z" fill="#FF7000" fill-rule="evenodd"/><path d="M648.953 318.631C648.953 318.631 645.848 318.685 645.848 318.685 645.488 318.691 645.367 318.817 645.373 319.166 645.373 319.166 645.496 326.207 645.496 326.207 645.502 326.556 645.627 326.678 645.988 326.671 645.988 326.671 647.259 326.649 647.259 326.649 647.618 326.643 647.729 326.517 647.723 326.169 647.723 326.169 647.689 324.245 647.689 324.245 647.689 324.245 649.073 324.221 649.073 324.221 650.838 324.19 651.935 323.148 651.904 321.393 651.873 319.626 650.72 318.6 648.953 318.631ZM648.769 322.256C648.769 322.256 647.656 322.276 647.656 322.276 647.656 322.276 647.627 320.623 647.627 320.623 647.627 320.623 648.74 320.604 648.74 320.604 649.268 320.594 649.589 320.926 649.598 321.421 649.607 321.915 649.297 322.247 648.769 322.256ZM654.96 320.495C653.7 320.517 652.875 320.925 652.484 321.708 652.344 322.038 652.414 322.194 652.73 322.323 652.73 322.323 653.546 322.646 653.546 322.646 653.92 322.764 653.997 322.716 654.162 322.489 654.349 322.227 654.582 322.099 654.887 322.094 655.303 322.087 655.52 322.274 655.527 322.657 655.527 322.657 655.532 322.938 655.532 322.938 655.454 322.939 655.16 322.933 655.025 322.936 654.035 322.953 653.34 323.1 652.929 323.377 652.517 323.654 652.312 324.153 652.325 324.862 652.336 325.525 652.536 325.995 652.923 326.28 653.311 326.566 654.011 326.699 655.034 326.682 656.024 326.664 656.765 326.55 657.256 326.328 657.603 326.187 657.679 326.051 657.672 325.646 657.672 325.646 657.623 322.879 657.623 322.879 657.596 321.337 656.85 320.462 654.96 320.495ZM655.57 325.153C655.571 325.187 655.549 325.21 655.515 325.21 655.404 325.234 655.213 325.249 654.954 325.254 654.515 325.262 654.376 325.095 654.372 324.813 654.366 324.51 654.567 324.36 654.96 324.353 655.264 324.348 655.456 324.344 655.556 324.354 655.556 324.354 655.57 325.153 655.57 325.153ZM663.313 320.731C662.768 320.482 662.024 320.371 661.09 320.387 659.258 320.419 658.362 321.313 658.391 322.977 658.391 322.977 658.407 323.877 658.407 323.877 658.434 325.441 659.28 326.281 660.98 326.251 661.193 326.248 661.44 326.221 661.743 326.171 661.743 326.171 661.751 326.621 661.751 326.621 661.759 327.059 661.56 327.276 661.144 327.284 660.863 327.289 660.625 327.158 660.406 326.892 660.256 326.692 660.053 326.661 659.796 326.79 659.796 326.79 658.859 327.267 658.859 327.267 658.547 327.442 658.483 327.656 658.656 327.923 659.143 328.658 659.981 329.014 661.185 328.993 663.041 328.961 663.878 327.932 663.85 326.348 663.85 326.348 663.763 321.376 663.763 321.376 663.757 321.005 663.687 320.893 663.313 320.731ZM661.711 324.371C661.633 324.372 661.341 324.434 661.161 324.437 660.734 324.444 660.517 324.257 660.511 323.885 660.511 323.885 660.493 322.839 660.493 322.839 660.485 322.422 660.718 322.217 661.179 322.209 661.37 322.205 661.528 322.214 661.641 322.246 661.664 322.257 661.675 322.267 661.676 322.301 661.676 322.301 661.712 324.371 661.712 324.371 661.712 324.371 661.711 324.371 661.711 324.371ZM667.232 320.281C665.398 320.313 664.436 321.252 664.465 322.928 664.465 322.928 664.482 323.917 664.482 323.917 664.51 325.493 665.405 326.5 667.329 326.467 668.599 326.445 669.436 326.059 669.851 325.31 670.004 325.014 669.933 324.802 669.626 324.661 669.626 324.661 668.844 324.337 668.844 324.337 668.471 324.197 668.359 324.234 668.216 324.461 668.008 324.746 667.707 324.886 667.324 324.892 666.84 324.901 666.588 324.658 666.58 324.174 666.58 324.174 666.576 323.96 666.576 323.96 666.576 323.96 669.5 323.909 669.5 323.909 669.918 323.902 670.115 323.707 670.108 323.314 670.108 323.314 670.098 322.695 670.098 322.695 670.073 321.254 669.088 320.249 667.232 320.281ZM667.992 322.573C667.992 322.573 666.552 322.599 666.552 322.599 666.552 322.599 666.55 322.453 666.55 322.453 666.542 322.003 666.774 321.774 667.258 321.766 667.742 321.757 667.982 321.978 667.99 322.428 667.99 322.428 667.992 322.573 667.992 322.573ZM679.121 318.104C679.121 318.104 677.974 318.124 677.974 318.124 677.614 318.131 677.503 318.256 677.509 318.605 677.509 318.605 677.542 320.45 677.542 320.45 677.551 320.99 677.593 321.438 677.678 321.798 677.751 322.156 677.895 322.649 678.097 323.287 678.097 323.287 678.007 323.288 678.007 323.288 677.866 322.976 677.666 322.462 677.572 322.227 677.466 321.993 677.268 321.602 677.027 321.246 677.027 321.246 675.132 318.399 675.132 318.399 675.027 318.255 674.868 318.179 674.654 318.182 674.654 318.182 673.327 318.206 673.327 318.206 672.968 318.212 672.846 318.338 672.852 318.686 672.852 318.686 672.975 325.728 672.975 325.728 672.981 326.076 673.107 326.198 673.467 326.192 673.467 326.192 674.603 326.172 674.603 326.172 674.963 326.166 675.085 326.04 675.079 325.691 675.079 325.691 675.047 323.858 675.047 323.858 675.04 323.465 675.021 323.093 674.982 322.745 674.942 322.409 674.893 322.139 674.856 321.949 674.82 321.759 674.734 321.422 674.625 320.963 674.625 320.963 674.715 320.962 674.715 320.962 674.893 321.509 675.047 321.935 675.188 322.248 675.317 322.56 675.503 322.895 675.746 323.262 675.746 323.262 677.525 325.897 677.525 325.897 677.629 326.041 677.776 326.118 677.99 326.114 677.99 326.114 679.26 326.092 679.26 326.092 679.609 326.086 679.731 325.96 679.724 325.611 679.724 325.611 679.602 318.57 679.602 318.57 679.595 318.22 679.469 318.098 679.121 318.104ZM683.272 320.001C681.473 320.032 680.499 320.971 680.526 322.512 680.526 322.512 680.547 323.773 680.547 323.773 680.574 325.314 681.58 326.218 683.38 326.187 685.191 326.155 686.154 325.239 686.127 323.675 686.127 323.675 686.105 322.415 686.105 322.415 686.077 320.851 685.083 319.969 683.272 320.001ZM684.047 323.767C684.053 324.161 683.821 324.368 683.348 324.376 682.887 324.384 682.648 324.185 682.641 323.792 682.641 323.792 682.617 322.42 682.617 322.42 682.61 322.015 682.842 321.808 683.304 321.8 683.776 321.792 684.016 321.991 684.023 322.396 684.023 322.396 684.047 323.767 684.047 323.767ZM690.204 320.048C690.204 320.048 689.428 320.061 689.428 320.061 689.428 320.061 689.412 319.14 689.412 319.14 689.406 318.825 689.292 318.714 688.966 318.72 688.966 318.72 687.74 318.742 687.74 318.742 687.413 318.747 687.303 318.862 687.308 319.177 687.308 319.177 687.324 320.098 687.324 320.098 687.324 320.098 686.84 320.107 686.84 320.107 686.514 320.112 686.416 320.227 686.421 320.542 686.421 320.542 686.436 321.385 686.436 321.385 686.442 321.711 686.544 321.822 686.87 321.816 686.87 321.816 687.354 321.808 687.354 321.808 687.354 321.808 687.386 323.607 687.386 323.607 687.418 325.452 688.307 326.111 690.297 326.043 690.646 326.037 690.734 325.923 690.728 325.596 690.728 325.596 690.711 324.629 690.711 324.629 690.706 324.302 690.614 324.192 690.265 324.198 689.691 324.208 689.496 324.02 689.486 323.424 689.486 323.424 689.457 321.771 689.457 321.771 689.457 321.771 690.233 321.757 690.233 321.757 690.559 321.751 690.658 321.637 690.652 321.311 690.652 321.311 690.637 320.467 690.637 320.467 690.633 320.154 690.53 320.042 690.204 320.048ZM698.602 317.764C698.602 317.764 693.89 317.847 693.89 317.847 693.531 317.853 693.408 317.979 693.414 318.327 693.414 318.327 693.537 325.369 693.537 325.369 693.543 325.718 693.669 325.839 694.029 325.833 694.029 325.833 695.3 325.811 695.3 325.811 695.659 325.804 695.77 325.679 695.764 325.33 695.764 325.33 695.724 323.058 695.724 323.058 695.724 323.058 698.097 323.016 698.097 323.016 698.457 323.01 698.58 322.884 698.573 322.524 698.573 322.524 698.556 321.511 698.556 321.511 698.55 321.163 698.424 321.041 698.063 321.047 698.063 321.047 695.69 321.089 695.69 321.089 695.69 321.089 695.667 319.785 695.667 319.785 695.667 319.785 698.636 319.733 698.636 319.733 698.996 319.726 699.119 319.601 699.112 319.24 699.112 319.24 699.095 318.228 699.095 318.228 699.089 317.88 698.963 317.758 698.602 317.764ZM702.046 319.673C700.246 319.705 699.272 320.644 699.299 322.185 699.299 322.185 699.321 323.445 699.321 323.445 699.348 324.986 700.353 325.89 702.154 325.859 703.964 325.827 704.927 324.911 704.9 323.348 704.9 323.348 704.878 322.087 704.878 322.087 704.851 320.524 703.856 319.642 702.046 319.673ZM702.82 323.439C702.827 323.833 702.594 324.04 702.122 324.048 701.661 324.056 701.421 323.858 701.414 323.464 701.414 323.464 701.39 322.092 701.39 322.092 701.383 321.688 701.615 321.48 702.077 321.472 702.549 321.464 702.789 321.663 702.796 322.068 702.796 322.068 702.82 323.439 702.82 323.439ZM710.53 319.693C710.53 319.693 709.292 319.715 709.292 319.715 708.977 319.72 708.868 319.835 708.873 320.15 708.873 320.15 708.935 323.703 708.935 323.703 708.936 323.76 708.914 323.794 708.859 323.806 708.713 323.843 708.555 323.857 708.409 323.86 707.958 323.867 707.731 323.668 707.724 323.253 707.724 323.253 707.67 320.171 707.67 320.171 707.665 319.856 707.561 319.746 707.235 319.751 707.235 319.751 705.998 319.773 705.998 319.773 705.671 319.779 705.573 319.893 705.579 320.208 705.579 320.208 705.634 323.369 705.634 323.369 705.661 324.932 706.508 325.783 708.207 325.753 709.095 325.738 709.891 325.589 710.595 325.295 710.963 325.143 711.05 324.984 711.044 324.612 711.044 324.612 710.965 320.114 710.965 320.114 710.958 319.799 710.855 319.687 710.53 319.693ZM714.711 319.452C713.834 319.467 713.038 319.616 712.323 319.91 711.954 320.063 711.867 320.222 711.873 320.593 711.873 320.593 711.952 325.092 711.952 325.092 711.957 325.407 712.061 325.517 712.387 325.512 712.387 325.512 713.624 325.49 713.624 325.49 713.951 325.484 714.049 325.37 714.043 325.055 714.043 325.055 713.98 321.445 713.98 321.445 713.98 321.423 713.991 321.411 714.013 321.399 714.136 321.363 714.305 321.349 714.507 321.345 714.958 321.337 715.186 321.537 715.193 321.952 715.193 321.952 715.247 325.033 715.247 325.033 715.252 325.348 715.366 325.459 715.681 325.453 715.681 325.453 716.919 325.432 716.919 325.432 717.244 325.426 717.344 325.312 717.338 324.997 717.338 324.997 717.283 321.836 717.283 321.836 717.257 320.273 716.41 319.422 714.711 319.452ZM722.893 317.002C722.893 317.002 721.667 317.023 721.667 317.023 721.34 317.029 721.23 317.143 721.235 317.458 721.235 317.458 721.269 319.371 721.269 319.371 720.842 319.356 720.594 319.349 720.514 319.35 718.849 319.379 717.988 320.283 718.017 321.937 718.017 321.937 718.038 323.151 718.038 323.151 718.051 323.927 718.276 324.531 718.722 324.939 719.156 325.348 719.812 325.55 720.689 325.535 721.567 325.519 722.34 325.371 723 325.101 723.389 324.925 723.467 324.823 723.461 324.452 723.461 324.452 723.338 317.423 723.338 317.423 723.334 317.107 723.219 316.996 722.893 317.002ZM721.343 323.6C721.344 323.634 721.332 323.645 721.311 323.657 721.175 323.693 721.008 323.707 720.795 323.711 720.366 323.718 720.15 323.542 720.143 323.172 720.143 323.172 720.119 321.787 720.119 321.787 720.112 321.371 720.345 321.165 720.807 321.157 720.965 321.155 721.133 321.173 721.302 321.204 721.302 321.204 721.344 323.6 721.343 323.6Z" fill="#FFFFFF" fill-rule="evenodd"/><path d="M668.402 296.322C668.402 296.322 666.337 296.359 666.337 296.359 666.337 296.359 666.074 281.254 666.074 281.254 666.052 279.998 665.598 279.561 664.343 279.582 664.343 279.582 660.334 279.652 660.334 279.652 659.038 279.675 658.516 279.927 657.723 280.913 657.723 280.913 645.669 295.828 645.669 295.828 644.916 296.773 644.801 297.18 644.826 298.597 644.826 298.597 644.873 301.27 644.873 301.27 644.895 302.525 645.349 302.963 646.604 302.941 646.604 302.941 658.874 302.727 658.874 302.727 658.874 302.727 658.944 306.736 658.944 306.736 658.966 307.992 659.378 308.43 660.674 308.407 660.674 308.407 664.846 308.335 664.846 308.335 666.101 308.313 666.539 307.859 666.517 306.604 666.517 306.604 666.447 302.595 666.447 302.595 666.447 302.595 668.512 302.558 668.512 302.558 669.767 302.537 670.206 302.083 670.184 300.828 670.184 300.828 670.134 297.993 670.134 297.993 670.112 296.739 669.658 296.301 668.402 296.322ZM658.766 296.491C658.766 296.491 653.096 296.59 653.096 296.59 653.096 296.59 658.646 289.647 658.646 289.647 658.646 289.647 658.766 296.491 658.766 296.491ZM695.333 288.967C695.22 282.487 690.897 278.513 683.608 278.64 676.319 278.767 672.138 282.89 672.251 289.37 672.251 289.37 672.405 298.238 672.405 298.238 672.521 304.839 676.842 308.733 684.131 308.606 691.42 308.478 695.603 304.436 695.488 297.835 695.488 297.835 695.333 288.967 695.333 288.967ZM687.475 298.298C687.509 300.283 686.234 301.48 684.007 301.518 681.781 301.557 680.464 300.406 680.43 298.421 680.43 298.421 680.263 288.905 680.263 288.905 680.229 286.921 681.505 285.765 683.731 285.727 685.959 285.688 687.274 286.799 687.309 288.782 687.309 288.782 687.475 298.298 687.475 298.298ZM719.361 305.682C719.361 305.682 719.291 301.672 719.291 301.672 719.291 301.672 721.356 301.636 721.356 301.636 722.611 301.614 723.05 301.161 723.028 299.906 723.028 299.906 722.978 297.071 722.978 297.071 722.956 295.816 722.502 295.377 721.247 295.399 721.247 295.399 719.182 295.435 719.182 295.435 719.182 295.435 718.918 280.331 718.918 280.331 718.896 279.075 718.444 278.637 717.188 278.659 717.188 278.659 713.178 278.729 713.178 278.729 711.883 278.752 711.36 279.004 710.567 279.99 710.567 279.99 698.514 294.905 698.514 294.905 697.76 295.85 697.646 296.257 697.671 297.674 697.671 297.674 697.717 300.347 697.717 300.347 697.739 301.602 698.193 302.04 699.449 302.018 699.449 302.018 711.718 301.804 711.718 301.804 711.718 301.804 711.788 305.813 711.788 305.813 711.809 307.069 712.223 307.507 713.519 307.484 713.519 307.484 717.69 307.411 717.69 307.411 718.946 307.39 719.383 306.937 719.361 305.682ZM711.609 295.568C711.609 295.568 705.94 295.667 705.94 295.667 705.94 295.667 711.49 288.725 711.49 288.725 711.49 288.725 711.609 295.568 711.609 295.568Z" fill="#FFFFFF" fill-rule="evenodd"/><path d="M820.149 385.92C819.9 385.925 819.654 385.945 819.412 385.971 819.412 385.971 819.518 392.056 819.518 392.056 819.75 391.97 819.997 391.912 820.258 391.907 821.5 391.886 822.526 392.875 822.547 394.118 822.569 395.36 821.579 396.385 820.337 396.407 820.074 396.411 819.826 396.362 819.591 396.284 819.591 396.284 819.698 402.393 819.698 402.393 819.941 402.41 820.187 402.421 820.436 402.417 824.992 402.338 828.621 398.58 828.541 394.024 828.462 389.469 824.705 385.841 820.149 385.92ZM816.228 375.48C816.228 375.48 813.978 375.52 813.978 375.52 813.978 375.52 789.232 375.951 789.232 375.951 789.232 375.951 786.983 375.99 786.983 375.99 785.74 376.012 784.75 377.037 784.772 378.279 784.772 378.279 784.811 380.529 784.811 380.529 784.811 380.529 785.282 407.525 785.282 407.525 785.369 412.494 789.467 416.453 794.438 416.367 794.438 416.367 810.185 416.092 810.185 416.092 815.155 416.005 819.114 411.906 819.027 406.936 819.027 406.936 818.556 379.94 818.556 379.94 818.556 379.94 818.517 377.691 818.517 377.691 818.495 376.448 817.47 375.459 816.228 375.48ZM820.121 383.664C820.121 383.664 819.991 376.165 819.991 376.165 819.969 374.922 818.944 373.933 817.702 373.954 817.702 373.954 785.457 374.517 785.457 374.517 784.214 374.538 783.224 375.563 783.246 376.806 783.246 376.806 783.808 409.051 783.808 409.051 783.895 414.02 787.995 417.979 792.964 417.892 792.964 417.892 811.711 417.566 811.711 417.566 816.681 417.479 820.64 413.38 820.553 408.41 820.553 408.41 820.488 404.661 820.488 404.661 826.286 404.559 830.904 399.777 830.803 393.979 830.702 388.181 825.919 383.563 820.121 383.664ZM817.553 408.462C817.611 411.77 814.967 414.508 811.659 414.566 811.659 414.566 792.912 414.893 792.912 414.893 789.604 414.951 786.866 412.306 786.808 408.998 786.808 408.998 786.259 377.503 786.259 377.503 786.259 377.503 817.004 376.967 817.004 376.967 817.004 376.967 817.553 408.462 817.553 408.462ZM820.278 392.662C821.106 392.648 821.79 393.308 821.804 394.136 821.819 394.963 821.158 395.648 820.331 395.662 820.331 395.662 820.278 392.662 820.278 392.662ZM820.435 401.661C820.435 401.661 820.383 398.661 820.383 398.661 822.867 398.618 824.847 396.568 824.804 394.084 824.76 391.599 822.71 389.62 820.226 389.663 820.226 389.663 820.174 386.663 820.174 386.663 824.309 386.591 827.731 389.896 827.803 394.031 827.875 398.166 824.57 401.589 820.435 401.661Z" fill="#FFFFFF" fill-rule="evenodd"/><path d="M820.121 383.664C820.121 383.664 819.991 376.165 819.991 376.165 819.969 374.922 818.944 373.933 817.702 373.954 817.702 373.954 785.457 374.517 785.457 374.517 784.214 374.538 783.224 375.563 783.246 376.806 783.246 376.806 783.808 409.051 783.808 409.051 783.895 414.02 787.995 417.979 792.964 417.892 792.964 417.892 811.711 417.566 811.711 417.566 816.681 417.479 820.64 413.38 820.553 408.41 820.553 408.41 820.488 404.661 820.488 404.661 826.286 404.559 830.904 399.777 830.803 393.979 830.702 388.181 825.919 383.563 820.121 383.664ZM817.553 408.462C817.611 411.77 814.967 414.508 811.659 414.566 811.659 414.566 792.912 414.893 792.912 414.893 789.604 414.951 786.866 412.306 786.808 408.998 786.808 408.998 786.259 377.503 786.259 377.503 786.259 377.503 817.004 376.967 817.004 376.967 817.004 376.967 817.553 408.462 817.553 408.462ZM820.278 392.662C821.106 392.648 821.79 393.308 821.804 394.136 821.819 394.963 821.158 395.648 820.331 395.662 820.331 395.662 820.278 392.662 820.278 392.662ZM820.435 401.661C820.435 401.661 820.383 398.661 820.383 398.661 822.867 398.618 824.847 396.568 824.804 394.084 824.76 391.599 822.71 389.62 820.226 389.663 820.226 389.663 820.174 386.663 820.174 386.663 824.309 386.591 827.731 389.896 827.803 394.031 827.875 398.166 824.57 401.589 820.435 401.661Z" fill="#3D3F49" fill-rule="evenodd"/><path d="M802.587 387.11C802.587 387.11 811.573 386.607 811.573 386.607 811.573 386.607 812.243 398.588 812.243 398.588 812.243 398.588 803.258 399.091 803.258 399.091 803.258 399.091 802.587 387.11 802.587 387.11ZM810.571 383.658C810.571 383.658 808.41 383.779 808.41 383.779 808.41 383.779 807.991 376.291 807.991 376.291 807.991 376.291 807.65 374.947 806.61 374.997 805.571 375.047 804.996 376.459 804.996 376.459 804.996 376.459 805.415 383.947 805.415 383.947 805.415 383.947 803.254 384.068 803.254 384.068 803.254 384.068 799.638 388.094 799.638 388.094 799.638 388.094 799.639 388.094 799.639 388.094 799.639 388.094 799.929 393.268 799.929 393.268 799.929 393.268 800.05 395.446 800.05 395.446 800.05 395.446 800.385 401.437 800.385 401.437 800.411 401.888 800.799 402.233 801.252 402.208 801.252 402.208 814.584 401.462 814.584 401.462 815.037 401.437 815.385 401.051 815.36 400.599 815.36 400.599 815.025 394.609 815.025 394.609 815.025 394.609 814.903 392.43 814.903 392.43 814.903 392.43 814.613 387.256 814.613 387.256 814.613 387.256 814.614 387.256 814.614 387.256 814.614 387.256 810.571 383.658 810.571 383.658ZM811.908 392.598C811.908 392.598 812.029 394.776 812.029 394.776 812.029 394.776 812.243 398.588 812.243 398.588 812.243 398.588 803.258 399.091 803.258 399.091 803.258 399.091 803.045 395.279 803.045 395.279 803.045 395.279 802.923 393.1 802.923 393.1 802.923 393.1 802.703 389.17 802.703 389.17 802.703 389.17 804.658 386.994 804.658 386.994 804.658 386.994 805.583 386.942 805.583 386.942 805.583 386.942 805.708 389.189 805.708 389.189 805.708 389.189 808.704 389.021 808.704 389.021 808.704 389.021 808.578 386.775 808.578 386.775 808.578 386.775 809.502 386.723 809.502 386.723 809.502 386.723 811.688 388.667 811.688 388.667 811.688 388.667 811.908 392.598 811.908 392.598Z" fill="#FF7000" fill-rule="evenodd"/><path d="M810.571 383.658C810.571 383.658 808.41 383.779 808.41 383.779 808.41 383.779 807.991 376.291 807.991 376.291 807.991 376.291 807.65 374.947 806.61 374.997 805.571 375.047 804.996 376.459 804.996 376.459 804.996 376.459 805.415 383.947 805.415 383.947 805.415 383.947 803.254 384.068 803.254 384.068 803.254 384.068 799.638 388.094 799.638 388.094 799.638 388.094 799.639 388.094 799.639 388.094 799.639 388.094 799.929 393.268 799.929 393.268 799.929 393.268 800.05 395.446 800.05 395.446 800.05 395.446 800.385 401.437 800.385 401.437 800.411 401.888 800.799 402.233 801.252 402.208 801.252 402.208 814.584 401.462 814.584 401.462 815.037 401.437 815.385 401.051 815.36 400.599 815.36 400.599 815.025 394.609 815.025 394.609 815.025 394.609 814.903 392.43 814.903 392.43 814.903 392.43 814.613 387.256 814.613 387.256 814.613 387.256 814.614 387.256 814.614 387.256 814.614 387.256 810.571 383.658 810.571 383.658ZM811.908 392.598C811.908 392.598 812.029 394.776 812.029 394.776 812.029 394.776 812.243 398.588 812.243 398.588 812.243 398.588 803.258 399.091 803.258 399.091 803.258 399.091 803.045 395.279 803.045 395.279 803.045 395.279 802.923 393.1 802.923 393.1 802.923 393.1 802.703 389.17 802.703 389.17 802.703 389.17 804.658 386.994 804.658 386.994 804.658 386.994 805.583 386.942 805.583 386.942 805.583 386.942 805.708 389.189 805.708 389.189 805.708 389.189 808.704 389.021 808.704 389.021 808.704 389.021 808.578 386.775 808.578 386.775 808.578 386.775 809.502 386.723 809.502 386.723 809.502 386.723 811.688 388.667 811.688 388.667 811.688 388.667 811.908 392.598 811.908 392.598Z" fill="#3D3F49" fill-rule="evenodd"/><path d="M0.0591076 0.0898688C0.0591076 0.0898688 52.5592 0.0898688 52.5592 0.0898688 52.5592 0.0898688 52.5592 63.09 52.5592 63.09 52.5592 63.09 0.0591076 63.09 0.0591076 63.09 0.0591076 63.09 0.0591076 0.0898688 0.0591076 0.0898688Z" fill="#FFFFFF" fill-rule="evenodd" transform="matrix(-1 -5.23599e-06 -5.23599e-06 1 892.002 280.125)"/><path d="M53.3091 0.0898688C53.3091 0.0898688 3.80913 0.0898688 3.80913 0.0898688 1.73837 0.0898688 0.0591076 1.7684 0.0591076 3.8399 0.0591076 3.8399 0.0591076 63.8399 0.0591076 63.8399 0.0591076 65.9114 1.73837 67.5899 3.80913 67.5899 3.80913 67.5899 53.3091 67.5899 53.3091 67.5899 55.3806 67.5899 57.0591 65.9114 57.0591 63.8399 57.0591 63.8399 57.0591 3.8399 57.0591 3.8399 57.0591 1.7684 55.3806 0.0898688 53.3091 0.0898688ZM54.0591 63.8399C54.0591 64.254 53.7231 64.5899 53.3091 64.5899 53.3091 64.5899 3.80913 64.5899 3.80913 64.5899 3.39591 64.5899 3.05911 64.254 3.05911 63.8399 3.05911 63.8399 3.05911 3.8399 3.05911 3.8399 3.05911 3.42593 3.39591 3.08997 3.80913 3.08997 3.80913 3.08997 53.3091 3.08997 53.3091 3.08997 53.7231 3.08997 54.0591 3.42593 54.0591 3.8399 54.0591 3.8399 54.0591 63.8399 54.0591 63.8399Z" fill="#3D3F49" fill-rule="evenodd" transform="matrix(-1 -5.23599e-06 -5.23599e-06 1 894.252 277.875)"/><path d="M0.0591076 0.0898688C0.0591076 0.0898688 40.5592 0.0898688 40.5592 0.0898688 40.5592 0.0898688 40.5592 51.09 40.5592 51.09 40.5592 51.09 0.0591076 51.09 0.0591076 51.09 0.0591076 51.09 0.0591076 0.0898688 0.0591076 0.0898688Z" fill="#E0E2E2" fill-rule="evenodd" transform="matrix(-1 -5.23599e-06 -5.23599e-06 1 886.002 286.125)"/><path d="M32.8341 17.3332C32.8341 17.3332 20.8836 5.38268 20.8836 5.38268 20.9308 5.12168 20.9594 4.85323 20.9594 4.57869 20.9594 2.09323 18.9441 0.0786352 16.4593 0.0786352 13.9739 0.0786352 11.9594 2.09323 11.9594 4.57869 11.9594 4.84567 11.9871 5.10667 12.0321 5.36094 12.0321 5.36094 0.0591076 17.3332 0.0591076 17.3332 0.0591076 17.3332 4.33407 17.3332 4.33407 17.3332 4.33407 17.3332 13.6079 8.05942 13.6079 8.05942 14.3841 8.69617 15.3771 9.07864 16.4593 9.07864 17.5356 9.07864 18.5219 8.69995 19.2966 8.06992 19.2966 8.06992 28.5592 17.3332 28.5592 17.3332 28.5592 17.3332 32.8341 17.3332 32.8341 17.3332ZM16.4428 6.08168C15.6149 6.08168 14.9429 5.40966 14.9429 4.58173 14.9429 3.7537 15.6149 3.08168 16.4428 3.08168 17.2709 3.08168 17.9429 3.7537 17.9429 4.58173 17.9429 5.40966 17.2716 6.08168 16.4428 6.08168Z" fill="#3D3F49" fill-rule="evenodd" transform="matrix(-1 -5.23599e-06 -5.23599e-06 1 882.14 262.871)"/><path d="M29.6556 0.0885487C45.9478 0.0885487 59.1556 13.2964 59.1556 29.5887 59.1556 45.8809 45.9478 59.0887 29.6556 59.0887 13.3641 59.0887 0.155561 45.8809 0.155561 29.5887 0.155561 13.2964 13.3641 0.0885487 29.6556 0.0885487Z" fill="#E0E2E2" fill-rule="evenodd" transform="matrix(-1 0 0 1 548 279)"/><path d="M23.6554 0.0884534C36.6341 0.0884534 47.1554 10.6098 47.1554 23.5886 47.1554 36.5672 36.6341 47.0886 23.6554 47.0886 10.6774 47.0886 0.155394 36.5672 0.155394 23.5886 0.155394 10.6098 10.6774 0.0884534 23.6554 0.0884534Z" fill="#FFFFFF" fill-rule="evenodd" transform="matrix(-1 0 0 1 542 285)"/><path d="M30.1543 0.0893954C13.5862 0.0893954 0.154292 13.7451 0.154292 30.5893 0.154292 47.4337 13.5862 61.0894 30.1543 61.0894 46.7225 61.0894 60.1544 47.4337 60.1544 30.5893 60.1544 13.7451 46.7225 0.0893954 30.1543 0.0893954ZM30.1543 58.077C15.2224 58.077 3.11726 45.7701 3.11726 30.5893 3.11726 15.4087 15.2224 3.10174 30.1543 3.10174 45.0862 3.10174 57.1914 15.4087 57.1914 30.5893 57.1914 45.7701 45.0862 58.077 30.1543 58.077ZM30.1543 6.11409C16.8588 6.11409 6.08023 17.0722 6.08023 30.5893 6.08023 44.1066 16.8588 55.0647 30.1543 55.0647 43.4499 55.0647 54.2285 44.1066 54.2285 30.5893 54.2285 17.0722 43.4499 6.11409 30.1543 6.11409ZM30.1543 52.0523C18.495 52.0523 9.04319 42.443 9.04319 30.5893 9.04319 18.7358 18.495 9.12644 30.1543 9.12644 41.8137 9.12644 51.2655 18.7358 51.2655 30.5893 51.2655 42.443 41.8137 52.0523 30.1543 52.0523Z" fill="#3D3F49" fill-rule="evenodd" transform="matrix(-1 0 0 1 549 278)"/><path d="M3.64595 0.0831922C5.57936 0.0831922 7.146 1.65042 7.146 3.58314 7.146 5.51587 5.57936 7.08319 3.64595 7.08319 1.71254 7.08319 0.145905 5.51587 0.145905 3.58314 0.145905 1.65042 1.71254 0.0831922 3.64595 0.0831922Z" fill="#3D3F49" fill-rule="evenodd" transform="matrix(-1 0 0 1 522 305)"/><path d="M13.449 6.66667C13.449 6.66667 2.40682 0.291759 2.40682 0.291759 1.68976-0.12231 0.772598 0.12294 0.359265 0.840735-0.056168 1.55769 0.189816 2.4757 0.907507 2.88966 0.907507 2.88966 11.9491 9.26467 11.9491 9.26467 12.6668 9.67874 13.5848 9.43276 13.998 8.7157 14.4121 7.998 14.1668 7.08073 13.449 6.66667Z" fill="#3D3F49" fill-rule="evenodd" transform="matrix(-0.880876 0.473347 0.473347 0.880876 526.78 295.176)"/><path d="M10.1503 0.83664C9.73785 0.12336 8.82583-0.121155 8.11255 0.289869 8.11255 0.289869 0.904357 4.76882 0.904357 4.76882 0.191076 5.18131-0.0527034 6.09333 0.35832 6.80661 0.770079 7.5199 1.68126 7.7643 2.39528 7.35339 2.39528 7.35339 9.60357 2.8736 9.60357 2.8736 10.3176 2.46184 10.5621 1.54982 10.1503 0.83664Z" fill="#3D3F49" fill-rule="evenodd" transform="matrix(-0.969762 0.244053 0.244053 0.969762 517.298 302.437)"/><path d="M11.5012 0.311496C11.2079 0.0182677 10.734 0.0182677 10.4406 0.311496 10.4406 0.311496 0.386142 10.366 0.386142 10.366 0.0929134 10.6593 0.0929134 11.1341 0.386142 11.4266 0.67937 11.7198 1.15412 11.7198 1.44745 11.4266 1.44745 11.4266 11.5012 1.37207 11.5012 1.37207 11.7944 1.07874 11.7944 0.604829 11.5012 0.311496Z" fill="#E23A3A" fill-rule="evenodd" transform="matrix(0.154378 0.988012 0.988012 -0.154378 515.862 298.272)"/></g></svg>