<svg width="448" height="450" xmlns="http://www.w3.org/2000/svg" xmlns:xlink="http://www.w3.org/1999/xlink" overflow="hidden"><defs><clipPath id="clip0"><rect x="416" y="135" width="448" height="450"/></clipPath></defs><g clip-path="url(#clip0)" transform="translate(-416 -135)"><path d="M640 137.645C755.98 137.645 851.373 226.183 862.844 339.64L864 362.641 864 362.65 863.953 363.71 864 363.71 864 585 632.217 585 632.217 453.275 734.603 453.275 734.603 384.616 632.217 384.616 632.217 320.178 748.108 320.178 748.108 251.518 632.217 251.518 562.171 251.518 548.665 251.518 548.665 384.616 548.665 453.275 548.665 567.929 540.447 564.258C466.689 527.441 416 450.989 416 362.645 416 238.381 516.288 137.645 640 137.645ZM416 135 416 135 416 362.645 416 585 416 585Z" fill="#FFFFFF" fill-rule="evenodd"/></g></svg>