<svg width="495" height="425" xmlns="http://www.w3.org/2000/svg" xmlns:xlink="http://www.w3.org/1999/xlink" overflow="hidden"><defs><clipPath id="clip0"><rect x="409" y="124" width="495" height="425"/></clipPath></defs><g clip-path="url(#clip0)" transform="translate(-409 -124)"><path d="M517.23 380.48C515.623 378.863 513.909 378 511.446 378 477.595 378.647 443.744 378 410 378.755 411.5 378.755 418.141 386.412 419.32 387.49 444.815 410.138 470.417 432.57 495.913 455.326 496.663 455.973 497.305 456.943 498.162 457.914 477.488 467.296 457.134 476.571 436.781 485.846 440.102 486.601 507.589 493.611 538.226 495.984 539.512 496.091 540.904 495.66 542.083 495.121 553.009 490.268 604 466.973 604 466.973 604 466.973 529.335 392.667 517.23 380.48Z" fill="#FFFFFF" fill-rule="evenodd"/><path d="M807.985 382.253C806.379 382.253 805.309 382.896 804.238 383.969 789.252 398.88 717 470.002 717 470.002L786.791 498 889.871 487.058C889.871 487.058 843.629 466.998 820.508 457.129 821.472 455.305 904 380 904 380 904 380 837.207 381.716 807.985 382.253Z" fill="#FFFFFF" fill-rule="evenodd"/><path d="M630.857 547.968C630.857 547.726 631 547.484 631 547L630 547C630.143 547 630.857 548.21 630.857 547.968Z" fill="#FFFFFF" fill-rule="evenodd"/><path d="M796.004 378.071 799 218 690.71 332.214 631 547.571 651.973 548C651.973 548 689.318 483.071 706.332 466.357 710.399 462.286 796.004 378.071 796.004 378.071Z" fill="#FFFFFF" fill-rule="evenodd"/><path d="M511 225 526.5 376.856 642 490 603.141 318.039Z" fill="#FFFFFF" fill-rule="evenodd"/><path d="M648.779 124 574 194.261 581.382 232.712 647.496 433 707.939 235.497 715 196.189Z" fill="#FFFFFF" fill-rule="evenodd"/></g></svg>